<svg width="800" height="800" viewBox="0 0 800 800" fill="none" xmlns="http://www.w3.org/2000/svg">
<mask id="mask0_3_2" style="mask-type:luminance" maskUnits="userSpaceOnUse" x="6" y="6" width="788" height="788">
<path d="M6.39062 6.39062H793.594V793.594H6.39062V6.39062Z" fill="white"/>
</mask>
<g mask="url(#mask0_3_2)">
<path fill-rule="evenodd" clip-rule="evenodd" d="M785.859 738.75L539.734 492.625C587.561 432.762 610.645 356.852 604.255 280.5C597.871 204.145 562.483 133.137 505.372 82.0468C448.261 30.9671 373.762 3.6906 297.169 5.82029C220.575 7.95654 147.706 39.3344 93.5281 93.5156C39.3469 147.697 7.96876 220.566 5.83282 297.156C3.70266 373.75 30.9797 448.248 82.0594 505.359C133.145 562.47 204.155 597.858 280.513 604.242C356.867 610.633 432.777 587.548 492.638 539.722L738.763 785.847C743.706 790.937 750.493 793.812 757.592 793.812C764.685 793.812 771.478 790.937 776.416 785.847L785.864 776.399C790.954 771.461 793.829 764.668 793.829 757.575C793.829 750.477 790.954 743.69 785.864 738.745L785.859 738.75ZM281.922 537.625C223.2 531.558 168.97 503.433 130.183 458.927C91.4016 414.427 70.9547 356.858 72.9812 297.848C75.0016 238.852 99.3484 182.816 141.091 141.067C182.833 99.325 238.869 74.9781 297.872 72.9578C356.875 70.9314 414.442 91.3781 458.95 130.159C503.456 168.947 531.581 223.177 537.648 281.898C544.552 351.606 519.839 420.741 470.308 470.273C420.777 519.806 351.644 544.517 281.933 537.614L281.922 537.625Z" fill="black"/>
</g>
</svg>
