<?xml version="1.0" encoding="UTF-8"?>
<!DOCTYPE svg PUBLIC "-//W3C//DTD SVG 1.1//EN" "http://www.w3.org/Graphics/SVG/1.1/DTD/svg11.dtd">
<!-- Creator: CorelDRAW X7 -->
<svg xmlns="http://www.w3.org/2000/svg" xml:space="preserve" width="2365px" height="1328px" version="1.1" style="shape-rendering:geometricPrecision; text-rendering:geometricPrecision; image-rendering:optimizeQuality; fill-rule:evenodd; clip-rule:evenodd"
viewBox="0 0 24490 13753"
 xmlns:xlink="http://www.w3.org/1999/xlink">
 <defs>
  <style type="text/css">
   <![CDATA[
    .fil0 {fill:#FEFEFE}
   ]]>
  </style>
 </defs>
 <g id="Слой_x0020_1">
  <metadata id="CorelCorpID_0Corel-Layer"/>
  <path class="fil0" d="M12000 13740l1476 0c0,0 450,0 707,-321 257,-256 257,-706 257,-706 0,0 0,-1990 898,-2183 899,-257 2055,1862 3211,2761 899,578 1605,449 1605,449l3210 0c0,0 1734,-128 899,-1412 -128,-129 -449,-1028 -2440,-2761 -2054,-1862 -1733,-1605 707,-4880 1476,-1990 2054,-3210 1862,-3724 -257,-449 -1284,-321 -1284,-321l-3725 0c0,0 -256,0 -449,128 -321,0 -449,322 -449,322 0,0 -578,1476 -1413,2889 -1605,2761 -2311,2889 -2568,2761 -578,-321 -450,-1605 -450,-2440 0,-2633 450,-3788 -834,-4045 -193,-193 -386,-257 -1477,-257 -1284,0 -2440,0 -3018,321 -449,257 -706,706 -578,706 257,0 835,129 1028,578 321,450 321,1605 321,1605 0,0 256,3147 -450,3596 -449,257 -1156,-257 -2632,-2761 -707,-1284 -1285,-2632 -1285,-2632 0,0 -128,-257 -321,-450 -256,-128 -577,-257 -577,-257l-3468 0c0,0 -578,0 -706,257 -128,257 0,578 0,578 0,0 2633,6356 5779,9567 2953,2825 6164,2632 6164,2632z"/>
 </g>
</svg>
